<?xml version="1.0" encoding="utf-8"?>
<!-- Generator: Adobe Illustrator 16.0.0, SVG Export Plug-In . SVG Version: 6.00 Build 0)  -->
<!DOCTYPE svg PUBLIC "-//W3C//DTD SVG 1.1//EN" "http://www.w3.org/Graphics/SVG/1.1/DTD/svg11.dtd">
<svg version="1.1" id="Layer_1" xmlns="http://www.w3.org/2000/svg" xmlns:xlink="http://www.w3.org/1999/xlink" x="0px" y="0px"
	 width="32px" height="32px" viewBox="0 0 32 32" enable-background="new 0 0 32 32" xml:space="preserve">
<path d="M1.4,23.842c0,2.729-2.272,6.913,1.806,7.715c1.646,0.33,7.979,0.486,9.381-0.168c1.574-0.738,2.193-2.753,0.849-3.693
	c-2.258-1.549-3.237,0.637-4.804,1.369c-5.383,2.502-5.426-2.125-5.426-4.996"/>
<path d="M18.456,23.842c0,2.729-2.27,6.913,1.808,7.715c1.646,0.33,7.979,0.486,9.381-0.168c1.572-0.738,2.192-2.753,0.851-3.693
	c-2.259-1.549-3.236,0.637-4.804,1.369c-5.383,2.502-5.428-2.125-5.428-4.996"/>
<g>
	<rect x="1.607" y="1.625" fill="#BBDDFF" width="29" height="22.75"/>
	<path fill="#4287CC" d="M29.107,3.25v19.5h-26V3.25H29.107 M32.107,0h-32v26h32V0L32.107,0z"/>
</g>
<ellipse fill="#FFFFFF" stroke="#000000" stroke-width="2" stroke-miterlimit="10" cx="22.5" cy="9.705" rx="6.497" ry="6.58"/>
<ellipse cx="24.072" cy="10.578" rx="1.858" ry="1.595"/>
<ellipse fill="#FFFFFF" stroke="#000000" stroke-width="2" stroke-miterlimit="10" cx="12.25" cy="9.705" rx="6.497" ry="6.58"/>
<ellipse cx="13.822" cy="10.579" rx="1.858" ry="1.595"/>
<g>
	<path d="M11.964,19.5c-0.009,0.049,0.521-0.068,1.296-0.151c0.778-0.09,1.813-0.146,2.848-0.132
		c1.035,0.021,2.07,0.112,2.846,0.243c0.777,0.122,1.296,0.29,1.296,0.29s-0.519,0.169-1.299,0.284
		c-0.779,0.123-1.82,0.197-2.861,0.182c-1.041-0.021-2.081-0.133-2.857-0.297C12.458,19.766,11.937,19.545,11.964,19.5z"/>
</g>
</svg>
