<?xml version="1.0" encoding="utf-8"?>
<!-- Generator: Adobe Illustrator 16.0.0, SVG Export Plug-In . SVG Version: 6.00 Build 0)  -->
<!DOCTYPE svg PUBLIC "-//W3C//DTD SVG 1.1//EN" "http://www.w3.org/Graphics/SVG/1.1/DTD/svg11.dtd">
<svg version="1.1" id="Layer_1" xmlns="http://www.w3.org/2000/svg" xmlns:xlink="http://www.w3.org/1999/xlink" x="0px" y="0px"
	 width="64px" height="32px" viewBox="0 0 64 32" enable-background="new 0 0 64 32" xml:space="preserve">
<path d="M37.021,23.921c0,2.729-2.272,6.913,1.806,7.715c1.646,0.33,7.979,0.486,9.381-0.168c1.574-0.738,2.193-2.753,0.849-3.693
	c-2.258-1.549-3.237,0.637-4.804,1.369c-5.383,2.502-5.426-2.125-5.426-4.996"/>
<path d="M46.076,23.921c0,2.729-2.27,6.913,1.808,7.715c1.646,0.33,7.979,0.486,9.381-0.168c1.572-0.738,2.192-2.753,0.851-3.693
	c-2.259-1.549-3.236,0.637-4.804,1.369c-5.383,2.502-5.428-2.125-5.428-4.996"/>
<g>
	<rect x="33.228" y="1.704" fill="#BBDDFF" width="29" height="22.75"/>
	<path fill="#4287CC" d="M60.728,3.329v19.5h-26v-19.5H60.728 M63.728,0.079h-32v26h32V0.079L63.728,0.079z"/>
</g>
<ellipse fill="#FFFFFF" stroke="#000000" stroke-width="2" stroke-miterlimit="10" cx="54.12" cy="9.784" rx="6.497" ry="6.58"/>
<ellipse cx="55.692" cy="10.657" rx="1.858" ry="1.595"/>
<ellipse fill="#FFFFFF" stroke="#000000" stroke-width="2" stroke-miterlimit="10" cx="43.87" cy="9.784" rx="6.497" ry="6.58"/>
<ellipse cx="45.442" cy="10.658" rx="1.858" ry="1.595"/>
<g>
	<path d="M43.584,19.579c-0.009,0.049,0.521-0.068,1.296-0.151c0.778-0.09,1.813-0.146,2.848-0.132
		c1.035,0.021,2.07,0.112,2.847,0.243c0.777,0.122,1.296,0.29,1.296,0.29s-0.519,0.169-1.299,0.284
		c-0.779,0.123-1.82,0.197-2.86,0.182c-1.041-0.021-2.081-0.133-2.857-0.297C44.078,19.845,43.558,19.624,43.584,19.579z"/>
</g>
<path d="M1.293,23.921c0,2.729-2.272,6.913,1.806,7.715c1.646,0.33,7.979,0.486,9.381-0.168c1.574-0.738,2.193-2.753,0.849-3.693
	c-2.258-1.549-3.237,0.637-4.804,1.369c-5.383,2.502-5.426-2.125-5.426-4.996"/>
<path d="M18.349,23.921c0,2.729-2.27,6.913,1.808,7.715c1.646,0.33,7.979,0.486,9.381-0.168c1.572-0.738,2.192-2.753,0.851-3.693
	c-2.259-1.549-3.236,0.637-4.804,1.369c-5.383,2.502-5.428-2.125-5.428-4.996"/>
<g>
	<rect x="1.5" y="1.704" fill="#BBDDFF" width="29" height="22.75"/>
	<path fill="#4287CC" d="M29,3.329v19.5H3v-19.5H29 M32,0.079H0v26h32V0.079L32,0.079z"/>
</g>
<ellipse fill="#FFFFFF" stroke="#000000" stroke-width="2" stroke-miterlimit="10" cx="22.393" cy="9.784" rx="6.497" ry="6.58"/>
<ellipse cx="23.965" cy="10.657" rx="1.858" ry="1.595"/>
<ellipse fill="#FFFFFF" stroke="#000000" stroke-width="2" stroke-miterlimit="10" cx="12.143" cy="9.784" rx="6.497" ry="6.58"/>
<ellipse cx="13.715" cy="10.658" rx="1.858" ry="1.595"/>
<g>
	<path d="M11.856,19.579c-0.009,0.049,0.521-0.068,1.296-0.151c0.778-0.09,1.813-0.146,2.848-0.132
		c1.035,0.021,2.07,0.112,2.847,0.243c0.777,0.122,1.296,0.29,1.296,0.29s-0.519,0.169-1.299,0.284
		c-0.779,0.123-1.82,0.197-2.86,0.182c-1.041-0.021-2.081-0.133-2.857-0.297C12.351,19.845,11.83,19.624,11.856,19.579z"/>
</g>
</svg>
