<?xml version="1.0" encoding="utf-8"?>
<!-- Generator: Adobe Illustrator 16.0.0, SVG Export Plug-In . SVG Version: 6.00 Build 0)  -->
<!DOCTYPE svg PUBLIC "-//W3C//DTD SVG 1.1//EN" "http://www.w3.org/Graphics/SVG/1.1/DTD/svg11.dtd">
<svg version="1.1" id="Layer_1" xmlns="http://www.w3.org/2000/svg" xmlns:xlink="http://www.w3.org/1999/xlink" x="0px" y="0px"
	 width="128px" height="64px" viewBox="0 0 128 64" enable-background="new 0 0 128 64" xml:space="preserve">
<path d="M2.631,55.207c0,3-2.272,7.598,1.805,8.479c1.646,0.363,7.98,0.535,9.381-0.184c1.574-0.812,2.194-3.025,0.849-4.061
	c-2.258-1.701-3.237,0.699-4.803,1.506c-5.383,2.75-5.427-2.336-5.427-5.492"/>
<path d="M51.228,55.207c0,3-2.271,7.598,1.805,8.479c1.646,0.361,7.98,0.535,9.382-0.186c1.574-0.811,2.192-3.023,0.849-4.059
	c-2.258-1.701-3.237,0.699-4.803,1.506c-5.383,2.75-5.428-2.338-5.428-5.494"/>
<path d="M70.889,55.207c0,3-2.272,7.598,1.805,8.479c1.646,0.363,7.979,0.535,9.382-0.184c1.573-0.812,2.192-3.025,0.849-4.061
	c-2.258-1.701-3.236,0.699-4.803,1.506c-5.385,2.75-5.428-2.336-5.428-5.492"/>
<path d="M111.484,55.207c0,3-2.271,7.598,1.805,8.479c1.646,0.362,7.98,0.535,9.381-0.185c1.574-0.812,2.193-3.024,0.85-4.06
	c-2.258-1.701-3.237,0.699-4.803,1.506c-5.383,2.75-5.428-2.338-5.428-5.493"/>
<g>
	<rect x="65.5" y="1.5" fill="#A6FFAE" width="61" height="53"/>
	<path fill="#50CC56" d="M125,3v50H67V3H125 M128,0H64v56h64V0L128,0z"/>
</g>
<g>
	<rect x="1.5" y="1.5" fill="#A6FFAE" width="61" height="53"/>
	<path fill="#50CC56" d="M61,3v50H3V3H61 M64,0H0v56h64V0L64,0z"/>
</g>
<path fill="none" stroke="#000000" stroke-width="2" stroke-miterlimit="10" d="M42.175,43.057
	c-2.963,0.334-6.883,0.166-10.175,0.166"/>
<ellipse fill="#FFFFFF" stroke="#000000" stroke-width="2" stroke-miterlimit="10" cx="46.056" cy="22.742" rx="12.918" ry="12.832"/>
<ellipse stroke="#000000" stroke-width="2" stroke-miterlimit="10" cx="53.175" cy="22.593" rx="1.824" ry="1.48"/>
<ellipse fill="#FFFFFF" stroke="#000000" stroke-width="2" stroke-miterlimit="10" cx="28.257" cy="22.114" rx="12.918" ry="12.832"/>
<ellipse stroke="#000000" stroke-width="2" stroke-miterlimit="10" cx="35.374" cy="22.964" rx="1.823" ry="1.48"/>
<path fill="none" stroke="#000000" stroke-width="2" stroke-miterlimit="10" d="M106.432,43.057
	c-2.963,0.334-6.883,0.166-10.176,0.166"/>
<ellipse fill="#FFFFFF" stroke="#000000" stroke-width="2" stroke-miterlimit="10" cx="110.312" cy="22.742" rx="12.918" ry="12.832"/>
<ellipse stroke="#000000" stroke-width="2" stroke-miterlimit="10" cx="117.432" cy="22.593" rx="1.824" ry="1.48"/>
<ellipse fill="#FFFFFF" stroke="#000000" stroke-width="2" stroke-miterlimit="10" cx="92.514" cy="22.114" rx="12.918" ry="12.832"/>
<ellipse stroke="#000000" stroke-width="2" stroke-miterlimit="10" cx="99.631" cy="22.965" rx="1.822" ry="1.48"/>
</svg>
