<?xml version="1.0" encoding="utf-8"?>
<!-- Generator: Adobe Illustrator 16.0.0, SVG Export Plug-In . SVG Version: 6.00 Build 0)  -->
<!DOCTYPE svg PUBLIC "-//W3C//DTD SVG 1.1//EN" "http://www.w3.org/Graphics/SVG/1.1/DTD/svg11.dtd">
<svg version="1.1" id="Layer_1" xmlns="http://www.w3.org/2000/svg" xmlns:xlink="http://www.w3.org/1999/xlink" x="0px" y="0px"
	 width="114.75px" height="64px" viewBox="-67.261 11.947 114.75 64" enable-background="new -67.261 11.947 114.75 64"
	 xml:space="preserve">
<polygon fill="#BBDDFF" stroke="#4287CC" stroke-width="3" stroke-miterlimit="10" points="21.078,27.298 15.055,36.713 
	29.441,64.95 43.489,34.568 36.131,27.298 29.272,46.125 "/>
<polygon fill="#FFF9AE" stroke="#BCB235" stroke-width="3" stroke-miterlimit="10" points="-38.745,27.725 -30.53,20.449 
	-21.139,32.43 -17.618,17.027 -8.815,24.726 -16.052,37.995 -5.488,43.986 -11.357,53.828 -20.21,43.131 -25.833,53.828 
	-34.051,47.836 -25.833,37.567 "/>
<polygon fill="#A6FFAE" stroke="#50CC56" stroke-width="3" stroke-miterlimit="10" points="-56.294,38.026 -53.947,27.44 
	-29.43,33.103 -50.558,49.592 -33.082,54.024 -35.166,65.098 -61.511,57.713 -59.948,46.268 -48.469,39.748 "/>
<polygon fill="#FF8383" stroke="#BC4444" stroke-width="3" stroke-miterlimit="10" points="12.121,49.187 2.417,43.582 
	-0.03,54.092 7.407,59.847 10.769,54.589 17.711,54.785 8.066,72.543 -8.842,55.565 -0.621,33.477 17.506,43.331 "/>
</svg>
