<?xml version="1.0" encoding="utf-8"?>
<!-- Generator: Adobe Illustrator 16.0.0, SVG Export Plug-In . SVG Version: 6.00 Build 0)  -->
<!DOCTYPE svg PUBLIC "-//W3C//DTD SVG 1.1//EN" "http://www.w3.org/Graphics/SVG/1.1/DTD/svg11.dtd">
<svg version="1.1" id="Layer_1" xmlns="http://www.w3.org/2000/svg" xmlns:xlink="http://www.w3.org/1999/xlink" x="0px" y="0px"
	 width="700px" height="700px" viewBox="0 0 700 700" enable-background="new 0 0 700 700" xml:space="preserve">
<path fill="none" stroke="#F0B3FF" stroke-width="40" stroke-miterlimit="10" d="M515.074,354.402
	c0,95.271-77.242,172.504-172.503,172.504c-95.258,0-172.497-77.232-172.497-172.504c0-95.285,77.239-172.496,172.497-172.496
	C437.832,181.906,515.074,259.119,515.074,354.402z"/>
<path fill="none" stroke="#FFB3B3" stroke-width="49" stroke-miterlimit="10" d="M655.387,350.673
	c0,169.82-137.66,307.5-307.5,307.5c-169.828,0-307.5-137.68-307.5-307.5c0-169.846,137.671-307.5,307.5-307.5
	C517.727,43.173,655.387,180.827,655.387,350.673z"/>
<path fill="none" stroke="#FFE0B3" stroke-width="74.5456" stroke-miterlimit="10" d="M612.8,354.402
	c0,149.237-121.008,270.227-270.229,270.227c-149.238,0-270.228-120.988-270.228-270.227c0-149.253,120.989-270.226,270.228-270.226
	C491.792,84.178,612.8,205.149,612.8,354.402z"/>
<path fill="none" stroke="#FFF8B3" stroke-width="87.3574" stroke-miterlimit="10" d="M575.529,354.402
	c0,128.646-104.318,232.954-232.958,232.954c-128.645,0-232.955-104.309-232.955-232.954c0-128.668,104.312-232.952,232.955-232.952
	C471.211,121.45,575.529,225.734,575.529,354.402z"/>
<path fill="none" stroke="#B3FFB3" stroke-width="55.9092" stroke-miterlimit="10" d="M556.893,354.402
	c0,118.351-95.968,214.317-214.321,214.317c-118.35,0-214.319-95.968-214.319-214.317c0-118.375,95.969-214.314,214.319-214.314
	C460.925,140.088,556.893,236.027,556.893,354.402z"/>
<path fill="none" stroke="#B3EBFF" stroke-width="28" stroke-miterlimit="10" d="M538.254,354.402
	c0,108.067-87.609,195.687-195.683,195.687c-108.069,0-195.682-87.618-195.682-195.687c0-108.084,87.613-195.68,195.682-195.68
	C450.645,158.723,538.254,246.318,538.254,354.402z"/>
</svg>
