<?xml version="1.0" encoding="utf-8"?>
<!-- Generator: Adobe Illustrator 16.0.0, SVG Export Plug-In . SVG Version: 6.00 Build 0)  -->
<!DOCTYPE svg PUBLIC "-//W3C//DTD SVG 1.1//EN" "http://www.w3.org/Graphics/SVG/1.1/DTD/svg11.dtd">
<svg version="1.1" id="Layer_1" xmlns="http://www.w3.org/2000/svg" xmlns:xlink="http://www.w3.org/1999/xlink" x="0px" y="0px"
	 width="128px" height="32px" viewBox="-32 16 128 32" enable-background="new -32 16 128 32" xml:space="preserve">
<path d="M-27.607,40c0,2.729-2.272,6.913,1.805,7.714c1.646,0.331,7.98,0.487,9.381-0.167c1.574-0.739,2.194-2.753,0.849-3.694
	c-2.258-1.548-3.237,0.636-4.803,1.37c-5.383,2.502-5.427-2.125-5.427-4.997"/>
<path fill="none" stroke="#000000" stroke-width="2" stroke-miterlimit="10" d="M5.088,29.68c-2.963,0.334-6.883,0.167-10.175,0.167
	"/>
<ellipse stroke="#000000" stroke-width="2" stroke-miterlimit="10" cx="-7.834" cy="22.98" rx="1.824" ry="1.48"/>
<ellipse stroke="#000000" stroke-width="2" stroke-miterlimit="10" cx="8.086" cy="24.46" rx="1.824" ry="1.48"/>
<path d="M16.893,40c0,2.729-2.271,6.913,1.805,7.714c1.646,0.331,7.98,0.487,9.381-0.167c1.574-0.739,2.195-2.753,0.85-3.694
	c-2.258-1.548-3.236,0.636-4.803,1.37c-5.383,2.502-5.428-2.125-5.428-4.997"/>
<g>
	<rect x="-30.5" y="17.5" fill="#FF8383" width="61" height="21"/>
	<path fill="#BC4444" d="M29,19v18h-58V19H29 M32,16h-64v24h64V16L32,16z"/>
</g>
<ellipse fill="#FFFFFF" stroke="#000000" stroke-width="2" stroke-miterlimit="10" cx="13.962" cy="26.164" rx="8.001" ry="7.082"/>
<ellipse cx="16.729" cy="26.388" rx="1.859" ry="1.595"/>
<g>
	<path d="M5.131,33.234c-0.009,0.003,0.026,0.037-0.003,0.135c-0.031,0.097-0.111,0.228-0.243,0.333
		c-0.258,0.226-0.668,0.451-1.166,0.626c-0.995,0.378-2.347,0.552-3.676,0.515c-1.331-0.04-2.642-0.291-3.6-0.644
		c-0.962-0.322-1.573-0.73-1.573-0.73s0.686-0.261,1.672-0.413c0.991-0.182,2.283-0.248,3.56-0.211
		c1.278,0.041,2.541,0.186,3.49,0.347c0.474,0.065,0.87,0.136,1.142,0.145c0.135,0.003,0.243-0.002,0.304-0.025
		C5.108,33.289,5.128,33.226,5.131,33.234z"/>
</g>
<ellipse fill="#FFFFFF" stroke="#000000" stroke-width="2" stroke-miterlimit="10" cx="-12.037" cy="26.082" rx="8.001" ry="7.082"/>
<ellipse cx="-8.271" cy="26.306" rx="1.859" ry="1.595"/>
<path d="M40.121,40c0,2.729-2.271,6.913,1.805,7.714c1.646,0.331,7.98,0.487,9.381-0.167c1.574-0.739,2.195-2.753,0.85-3.694
	c-2.258-1.548-3.236,0.636-4.803,1.37c-5.383,2.502-5.428-2.125-5.428-4.997"/>
<path fill="none" stroke="#000000" stroke-width="2" stroke-miterlimit="10" d="M68.816,29.68
	c-2.963,0.334-6.883,0.167-10.176,0.167"/>
<ellipse stroke="#000000" stroke-width="2" stroke-miterlimit="10" cx="55.895" cy="22.98" rx="1.824" ry="1.48"/>
<ellipse stroke="#000000" stroke-width="2" stroke-miterlimit="10" cx="71.814" cy="24.46" rx="1.824" ry="1.48"/>
<path d="M76.621,40c0,2.729-2.271,6.913,1.805,7.714c1.646,0.331,7.98,0.487,9.381-0.167c1.574-0.739,2.195-2.753,0.85-3.694
	c-2.258-1.548-3.236,0.636-4.803,1.37c-5.383,2.502-5.428-2.125-5.428-4.997"/>
<g>
	<rect x="33.229" y="17.5" fill="#FF8383" width="61" height="21"/>
	<path fill="#BC4444" d="M92.729,19v18h-58V19H92.729 M95.729,16h-64v24h64V16L95.729,16z"/>
</g>
<ellipse fill="#FFFFFF" stroke="#000000" stroke-width="2" stroke-miterlimit="10" cx="77.69" cy="26.164" rx="8.001" ry="7.082"/>
<ellipse cx="80.457" cy="26.388" rx="1.859" ry="1.595"/>
<g>
	<path d="M68.859,33.234c-0.009,0.003,0.026,0.037-0.003,0.135c-0.031,0.097-0.111,0.228-0.243,0.333
		c-0.258,0.226-0.668,0.451-1.166,0.626c-0.995,0.378-2.347,0.552-3.676,0.515c-1.331-0.04-2.643-0.291-3.601-0.644
		c-0.962-0.322-1.573-0.73-1.573-0.73s0.686-0.261,1.673-0.413c0.991-0.182,2.282-0.248,3.56-0.211
		c1.278,0.041,2.541,0.186,3.49,0.347c0.474,0.065,0.87,0.136,1.142,0.145c0.135,0.003,0.243-0.002,0.304-0.025
		C68.837,33.289,68.856,33.226,68.859,33.234z"/>
</g>
<ellipse fill="#FFFFFF" stroke="#000000" stroke-width="2" stroke-miterlimit="10" cx="51.691" cy="26.082" rx="8.001" ry="7.082"/>
<ellipse cx="55.458" cy="26.306" rx="1.859" ry="1.595"/>
</svg>
