<?xml version="1.0" encoding="utf-8"?>
<!-- Generator: Adobe Illustrator 16.0.0, SVG Export Plug-In . SVG Version: 6.00 Build 0)  -->
<!DOCTYPE svg PUBLIC "-//W3C//DTD SVG 1.1//EN" "http://www.w3.org/Graphics/SVG/1.1/DTD/svg11.dtd">
<svg version="1.1" id="Layer_1" xmlns="http://www.w3.org/2000/svg" xmlns:xlink="http://www.w3.org/1999/xlink" x="0px" y="0px"
	 width="32px" height="68.259px" viewBox="0 0 32 68.259" enable-background="new 0 0 32 68.259" xml:space="preserve">
<path d="M5.597,54.207c-2.231,2.005-7.171,3.387-5.101,7.009c0.829,1.467,4.935,6.294,6.405,6.855
	c1.657,0.629,3.718-0.389,3.589-2.081c-0.243-2.816-2.683-1.94-4.33-2.566c-5.643-2.167-1.889-5.599,0.459-7.708"/>
<path d="M21,54c-1.807,2.395-6.388,4.697-3.665,7.855c1.096,1.28,6.048,5.233,7.6,5.503c1.745,0.3,3.572-1.094,3.124-2.729
	c-0.778-2.719-3.004-1.391-4.741-1.691c-5.953-1.047-2.925-5.135-1.024-7.654"/>
<g>
	<rect x="1.5" y="1.5" fill="#FFF9AE" width="29" height="53"/>
	<path fill="#BCB235" d="M29,3v50H3V3H29 M32,0H0v56h32V0L32,0z"/>
</g>
<ellipse fill="#FFFFFF" stroke="#000000" stroke-width="2" stroke-miterlimit="10" cx="22.516" cy="20.818" rx="8.484" ry="10.814"/>
<ellipse stroke="#000000" stroke-width="2" stroke-miterlimit="10" cx="26.191" cy="20.593" rx="1.197" ry="1.48"/>
<ellipse fill="#FFFFFF" stroke="#000000" stroke-width="2" stroke-miterlimit="10" cx="12.824" cy="21.132" rx="8.484" ry="10.814"/>
<ellipse stroke="#000000" stroke-width="2" stroke-miterlimit="10" cx="16.499" cy="21.965" rx="1.196" ry="1.48"/>
<g>
	<path d="M23.586,38.299c0,0-0.609,0.378-1.545,0.682c-0.463,0.174-1.014,0.31-1.627,0.384c-0.605,0.081-1.266,0.137-1.914,0.144
		c-1.277-0.012-2.557-0.179-3.502-0.453c-0.95-0.244-1.586-0.588-1.586-0.588s0.636-0.331,1.595-0.562
		c0.964-0.26,2.229-0.405,3.496-0.396c0.625-0.002,1.238,0.021,1.824,0.091c0.58,0.074,1.144,0.152,1.631,0.242
		C22.926,38.01,23.586,38.299,23.586,38.299z"/>
</g>
</svg>
