<?xml version="1.0" encoding="utf-8"?>
<!-- Generator: Adobe Illustrator 16.0.0, SVG Export Plug-In . SVG Version: 6.00 Build 0)  -->
<!DOCTYPE svg PUBLIC "-//W3C//DTD SVG 1.1//EN" "http://www.w3.org/Graphics/SVG/1.1/DTD/svg11.dtd">
<svg version="1.1" id="Layer_1" xmlns="http://www.w3.org/2000/svg" xmlns:xlink="http://www.w3.org/1999/xlink" x="0px" y="0px"
	 width="32px" height="64px" viewBox="0 0 32 64" enable-background="new 0 0 32 64" xml:space="preserve">
<path d="M1.63,55.207c0,3-2.272,7.598,1.805,8.479c1.646,0.363,7.98,0.535,9.381-0.184c1.574-0.812,2.195-3.025,0.85-4.061
	c-2.258-1.701-3.236,0.699-4.803,1.506c-5.383,2.75-5.428-2.336-5.428-5.492"/>
<path d="M19.229,55.207c0,3-2.271,7.598,1.805,8.479c1.646,0.362,7.98,0.535,9.381-0.185c1.574-0.812,2.193-3.024,0.85-4.06
	c-2.258-1.701-3.236,0.699-4.803,1.506c-5.383,2.75-5.428-2.338-5.428-5.493"/>
<g>
	<rect x="1.5" y="1.5" fill="#FFF9AE" width="29" height="53"/>
	<path fill="#BCB235" d="M29,3v50H3V3H29 M32,0H0v56h32V0L32,0z"/>
</g>
<ellipse fill="#FFFFFF" stroke="#000000" stroke-width="2" stroke-miterlimit="10" cx="22.516" cy="20.818" rx="8.484" ry="10.814"/>
<ellipse stroke="#000000" stroke-width="2" stroke-miterlimit="10" cx="26.191" cy="20.593" rx="1.197" ry="1.48"/>
<ellipse fill="#FFFFFF" stroke="#000000" stroke-width="2" stroke-miterlimit="10" cx="12.824" cy="21.132" rx="8.485" ry="10.814"/>
<ellipse stroke="#000000" stroke-width="2" stroke-miterlimit="10" cx="16.499" cy="21.965" rx="1.197" ry="1.48"/>
<g>
	<path d="M23.586,38.299c0,0-0.609,0.378-1.545,0.682c-0.463,0.174-1.014,0.309-1.627,0.383c-0.605,0.082-1.266,0.137-1.914,0.144
		c-1.277-0.012-2.557-0.179-3.502-0.454c-0.95-0.244-1.586-0.587-1.586-0.587s0.636-0.331,1.595-0.562
		c0.964-0.26,2.23-0.406,3.496-0.396c0.625-0.002,1.238,0.021,1.824,0.09c0.58,0.075,1.143,0.153,1.631,0.243
		C22.926,38.01,23.586,38.299,23.586,38.299z"/>
</g>
</svg>
