<?xml version="1.0" encoding="utf-8"?>
<!-- Generator: Adobe Illustrator 16.0.0, SVG Export Plug-In . SVG Version: 6.00 Build 0)  -->
<!DOCTYPE svg PUBLIC "-//W3C//DTD SVG 1.1//EN" "http://www.w3.org/Graphics/SVG/1.1/DTD/svg11.dtd">
<svg version="1.1" id="Layer_1" xmlns="http://www.w3.org/2000/svg" xmlns:xlink="http://www.w3.org/1999/xlink" x="0px" y="0px"
	 width="64px" height="64px" viewBox="0 0 64 64" enable-background="new 0 0 64 64" xml:space="preserve">
<path d="M1.631,55.207c0,3-2.271,7.598,1.806,8.479c1.646,0.363,7.979,0.535,9.381-0.184c1.574-0.812,2.194-3.025,0.849-4.061
	c-2.258-1.701-3.236,0.699-4.803,1.506c-5.383,2.75-5.427-2.336-5.427-5.492"/>
<path d="M19.228,55.207c0,3-2.271,7.598,1.805,8.479c1.646,0.362,7.98,0.535,9.382-0.185c1.574-0.812,2.192-3.024,0.849-4.06
	c-2.258-1.701-3.237,0.699-4.803,1.506c-5.383,2.75-5.428-2.338-5.428-5.493"/>
<path d="M36.333,55.207c0,3-2.271,7.598,1.806,8.479c1.646,0.363,7.979,0.535,9.381-0.184c1.574-0.812,2.194-3.025,0.85-4.061
	c-2.258-1.701-3.236,0.699-4.803,1.506c-5.383,2.75-5.428-2.336-5.428-5.492"/>
<path d="M47.93,55.207c0,3-2.271,7.598,1.805,8.479c1.646,0.362,7.98,0.535,9.383-0.185c1.574-0.812,2.193-3.024,0.849-4.06
	c-2.258-1.701-3.237,0.699-4.803,1.506c-5.384,2.75-5.429-2.338-5.429-5.493"/>
<g>
	<rect x="1.5" y="1.5" fill="#FFF9AE" width="29" height="53"/>
	<path fill="#BCB235" d="M29,3v50H3V3H29 M32,0H0v56h32V0L32,0z"/>
</g>
<g>
	<rect x="33.5" y="1.5" fill="#FFF9AE" width="29" height="53"/>
	<path fill="#BCB235" d="M61,3v50H35V3H61 M64,0H32v56h32V0L64,0z"/>
</g>
<ellipse fill="#FFFFFF" stroke="#000000" stroke-width="2" stroke-miterlimit="10" cx="22.515" cy="20.818" rx="8.485" ry="10.814"/>
<ellipse stroke="#000000" stroke-width="2" stroke-miterlimit="10" cx="26.191" cy="20.593" rx="1.198" ry="1.48"/>
<ellipse fill="#FFFFFF" stroke="#000000" stroke-width="2" stroke-miterlimit="10" cx="12.824" cy="21.132" rx="8.484" ry="10.814"/>
<ellipse stroke="#000000" stroke-width="2" stroke-miterlimit="10" cx="16.499" cy="21.965" rx="1.197" ry="1.48"/>
<g>
	<path d="M23.586,38.299c0,0-0.609,0.378-1.544,0.682c-0.463,0.174-1.014,0.309-1.627,0.383c-0.606,0.082-1.266,0.137-1.914,0.144
		c-1.278-0.012-2.558-0.179-3.503-0.454c-0.95-0.244-1.587-0.587-1.587-0.587s0.636-0.331,1.595-0.562
		c0.964-0.26,2.229-0.406,3.496-0.396c0.624-0.002,1.237,0.021,1.824,0.09c0.58,0.075,1.142,0.153,1.63,0.243
		C22.926,38.01,23.586,38.299,23.586,38.299z"/>
</g>
<ellipse fill="#FFFFFF" stroke="#000000" stroke-width="2" stroke-miterlimit="10" cx="54.217" cy="20.818" rx="8.485" ry="10.814"/>
<ellipse stroke="#000000" stroke-width="2" stroke-miterlimit="10" cx="57.895" cy="20.593" rx="1.197" ry="1.48"/>
<ellipse fill="#FFFFFF" stroke="#000000" stroke-width="2" stroke-miterlimit="10" cx="44.525" cy="21.132" rx="8.484" ry="10.814"/>
<ellipse stroke="#000000" stroke-width="2" stroke-miterlimit="10" cx="48.201" cy="21.965" rx="1.197" ry="1.48"/>
<g>
	<path d="M55.288,38.299c0,0-0.608,0.378-1.544,0.682c-0.463,0.174-1.014,0.309-1.627,0.383c-0.605,0.082-1.266,0.137-1.914,0.144
		c-1.278-0.012-2.559-0.179-3.503-0.454c-0.95-0.244-1.587-0.587-1.587-0.587s0.636-0.331,1.595-0.562
		c0.964-0.26,2.229-0.406,3.496-0.396c0.624-0.002,1.237,0.021,1.823,0.09c0.58,0.075,1.143,0.153,1.631,0.243
		C54.628,38.01,55.288,38.299,55.288,38.299z"/>
</g>
</svg>
