<?xml version="1.0" encoding="utf-8"?>
<!-- Generator: Adobe Illustrator 16.0.0, SVG Export Plug-In . SVG Version: 6.00 Build 0)  -->
<!DOCTYPE svg PUBLIC "-//W3C//DTD SVG 1.1//EN" "http://www.w3.org/Graphics/SVG/1.1/DTD/svg11.dtd">
<svg version="1.1" id="Layer_1" xmlns="http://www.w3.org/2000/svg" xmlns:xlink="http://www.w3.org/1999/xlink" x="0px" y="0px"
	 width="32px" height="37.343px" viewBox="0 0 32 37.343" enable-background="new 0 0 32 37.343" xml:space="preserve">
<path d="M5.451,23.842c-1.975,1.883-6.571,3.127-4.337,6.631c0.897,1.419,5.155,6.11,6.597,6.673c1.62,0.63,3.505-0.313,3.258-1.935
	c-0.438-2.703-2.695-1.902-4.306-2.531c-5.526-2.169-2.207-5.393-0.13-7.375"/>
<path d="M18.796,24.082c-1.411,2.334-5.519,4.742-2.442,7.537c1.238,1.134,6.578,4.543,8.116,4.707
	c1.728,0.182,3.3-1.222,2.639-2.721c-1.133-2.494-3.1-1.127-4.82-1.312c-5.901-0.643-3.546-4.626-2.062-7.083"/>
<g>
	<rect x="1.607" y="1.625" fill="#BBDDFF" width="29" height="22.75"/>
	<path fill="#4287CC" d="M29.107,3.25v19.5h-26V3.25H29.107 M32.107,0h-32v26h32V0L32.107,0z"/>
</g>
<ellipse fill="#FFFFFF" stroke="#000000" stroke-width="2" stroke-miterlimit="10" cx="22.5" cy="9.705" rx="6.497" ry="6.58"/>
<ellipse cx="24.072" cy="10.578" rx="1.857" ry="1.595"/>
<ellipse fill="#FFFFFF" stroke="#000000" stroke-width="2" stroke-miterlimit="10" cx="12.25" cy="9.705" rx="6.497" ry="6.58"/>
<ellipse cx="13.822" cy="10.579" rx="1.858" ry="1.595"/>
<g>
	<path d="M11.964,19.5c-0.009,0.049,0.521-0.068,1.296-0.15c0.778-0.091,1.813-0.146,2.848-0.133
		c1.035,0.021,2.07,0.112,2.846,0.243c0.776,0.122,1.296,0.29,1.296,0.29s-0.52,0.169-1.299,0.284
		c-0.779,0.123-1.82,0.196-2.861,0.182c-1.041-0.021-2.081-0.133-2.857-0.297C12.458,19.766,11.937,19.545,11.964,19.5z"/>
</g>
</svg>
