<?xml version="1.0" encoding="utf-8"?>
<!-- Generator: Adobe Illustrator 16.0.0, SVG Export Plug-In . SVG Version: 6.00 Build 0)  -->
<!DOCTYPE svg PUBLIC "-//W3C//DTD SVG 1.1//EN" "http://www.w3.org/Graphics/SVG/1.1/DTD/svg11.dtd">
<svg version="1.1" id="Layer_1" xmlns="http://www.w3.org/2000/svg" xmlns:xlink="http://www.w3.org/1999/xlink" x="0px" y="0px"
	 width="64px" height="67.975px" viewBox="0 0 64 67.975" enable-background="new 0 0 64 67.975" xml:space="preserve">
<path d="M5.601,54.404c-1.844,2.366-6.462,4.597-3.787,7.797c1.075,1.298,5.966,5.327,7.512,5.62
	c1.741,0.327,3.591-1.036,3.166-2.68c-0.735-2.73-2.983-1.438-4.714-1.765c-5.937-1.139-2.846-5.178-0.906-7.668"/>
<path d="M52.673,54.207c-2.024,2.214-6.802,4.076-4.388,7.477c0.971,1.377,5.529,5.778,7.05,6.192
	c1.708,0.462,3.658-0.754,3.366-2.423c-0.52-2.779-2.86-1.667-4.562-2.129c-5.829-1.603-2.43-5.388-0.301-7.717"/>
<g>
	<rect x="1.5" y="1.5" fill="#A6FFAE" width="61" height="53"/>
	<path fill="#50CC56" d="M61,3v50H3V3H61 M64,0H0v56h64V0L64,0z"/>
</g>
<path fill="none" stroke="#000000" stroke-width="2" stroke-miterlimit="10" d="M42.175,43.057
	c-2.963,0.334-6.883,0.166-10.175,0.166"/>
<ellipse fill="#FFFFFF" stroke="#000000" stroke-width="2" stroke-miterlimit="10" cx="46.057" cy="22.742" rx="12.918" ry="12.832"/>
<ellipse stroke="#000000" stroke-width="2" stroke-miterlimit="10" cx="53.175" cy="22.593" rx="1.824" ry="1.48"/>
<ellipse fill="#FFFFFF" stroke="#000000" stroke-width="2" stroke-miterlimit="10" cx="28.257" cy="22.114" rx="12.918" ry="12.832"/>
<ellipse stroke="#000000" stroke-width="2" stroke-miterlimit="10" cx="35.374" cy="22.965" rx="1.823" ry="1.48"/>
</svg>
