<?xml version="1.0" encoding="utf-8"?>
<!-- Generator: Adobe Illustrator 16.0.0, SVG Export Plug-In . SVG Version: 6.00 Build 0)  -->
<!DOCTYPE svg PUBLIC "-//W3C//DTD SVG 1.1//EN" "http://www.w3.org/Graphics/SVG/1.1/DTD/svg11.dtd">
<svg version="1.1" id="Layer_1" xmlns="http://www.w3.org/2000/svg" xmlns:xlink="http://www.w3.org/1999/xlink" x="0px" y="0px"
	 width="64px" height="34.614px" viewBox="0 0 64 34.614" enable-background="new 0 0 64 34.614" xml:space="preserve">
<path d="M5.219,22.182c-1.479,2.293-5.657,4.577-2.665,7.461c1.203,1.17,6.44,4.735,7.973,4.945
	c1.722,0.232,3.336-1.124,2.715-2.644c-1.058-2.525-3.064-1.221-4.778-1.453c-5.88-0.816-3.408-4.728-1.852-7.141"/>
<path d="M49.319,22.264c-1.076,2.508-4.813,5.456-1.385,7.801c1.381,0.953,7.139,3.598,8.686,3.549
	c1.735-0.058,3.102-1.663,2.238-3.058c-1.464-2.314-3.225-0.692-4.954-0.638c-5.933,0.174-4.148-4.095-3.015-6.733"/>
<path fill="none" stroke="#000000" stroke-width="2" stroke-miterlimit="10" d="M37.088,13.68
	c-2.963,0.334-6.883,0.168-10.175,0.168"/>
<ellipse stroke="#000000" stroke-width="2" stroke-miterlimit="10" cx="24.166" cy="6.98" rx="1.824" ry="1.48"/>
<ellipse stroke="#000000" stroke-width="2" stroke-miterlimit="10" cx="40.086" cy="8.46" rx="1.824" ry="1.479"/>
<g>
	<rect x="1.5" y="1.5" fill="#FF8383" width="61" height="21"/>
	<path fill="#BC4444" d="M61,3v18H3V3H61 M64,0H0v24h64V0L64,0z"/>
</g>
<ellipse fill="#FFFFFF" stroke="#000000" stroke-width="2" stroke-miterlimit="10" cx="45.962" cy="10.164" rx="8.001" ry="7.082"/>
<ellipse cx="48.729" cy="10.388" rx="1.859" ry="1.595"/>
<g>
	<path d="M37.131,17.234c-0.009,0.002,0.026,0.037-0.003,0.135c-0.03,0.097-0.11,0.229-0.243,0.333
		c-0.258,0.226-0.668,0.45-1.166,0.626c-0.994,0.378-2.347,0.552-3.676,0.515c-1.331-0.04-2.642-0.291-3.6-0.644
		c-0.962-0.322-1.573-0.73-1.573-0.73s0.686-0.261,1.672-0.412c0.991-0.183,2.283-0.248,3.56-0.211
		c1.278,0.04,2.541,0.186,3.49,0.346c0.475,0.065,0.87,0.137,1.143,0.146c0.135,0.003,0.242-0.002,0.304-0.024
		C37.107,17.289,37.128,17.227,37.131,17.234z"/>
</g>
<ellipse fill="#FFFFFF" stroke="#000000" stroke-width="2" stroke-miterlimit="10" cx="19.963" cy="10.082" rx="8.001" ry="7.082"/>
<ellipse cx="23.729" cy="10.306" rx="1.859" ry="1.595"/>
</svg>
