<?xml version="1.0" encoding="utf-8"?>
<!-- Generator: Adobe Illustrator 16.0.0, SVG Export Plug-In . SVG Version: 6.00 Build 0)  -->
<!DOCTYPE svg PUBLIC "-//W3C//DTD SVG 1.1//EN" "http://www.w3.org/Graphics/SVG/1.1/DTD/svg11.dtd">
<svg version="1.1" id="Layer_1" xmlns="http://www.w3.org/2000/svg" xmlns:xlink="http://www.w3.org/1999/xlink" x="0px" y="0px"
	 width="256px" height="256px" viewBox="0 0 256 256" enable-background="new 0 0 256 256" xml:space="preserve">
<ellipse fill="#F3FDFF" cx="88.5" cy="186.5" rx="96" ry="61.5"/>
<ellipse fill="#F3FDFF" cx="178.25" cy="132" rx="72.75" ry="72"/>
<ellipse fill="#F3FDFF" cx="256" cy="165.5" rx="57.5" ry="57"/>
<ellipse fill="#F3FDFF" cx="0" cy="165.5" rx="57.5" ry="57"/>
<g>
	<path fill="#FFFFFF" d="M168.444,190.773c0,0-0.078,0.479-0.23,1.407c-0.117,0.935-0.431,2.293-0.923,4.082
		c-0.307,0.863-0.604,1.854-1.022,2.909c-0.457,1.035-0.893,2.21-1.542,3.387c-0.584,1.218-1.334,2.454-2.147,3.776
		c-0.874,1.272-1.796,2.647-2.912,3.983c-4.348,5.438-10.794,11.197-19.244,16.042c-8.41,4.896-18.694,9.066-30.373,11.785
		c-5.834,1.376-12.016,2.369-18.46,2.986c-3.222,0.324-6.513,0.482-9.858,0.572c-1.673,0.047-3.359,0.021-5.06,0.032
		c-0.85-0.021-1.702-0.043-2.558-0.065l-1.287-0.036l-0.645-0.019l-0.323-0.01l-0.393-0.024c-3.21-0.14-7.001-0.501-10.493-0.989
		c-3.554-0.526-7.14-1.212-10.738-2.1c-7.19-1.79-14.413-4.47-21.338-8.363c-6.879-3.912-13.582-9.135-18.55-16.559
		c-2.425-3.72-4.424-7.988-5.311-12.683c-0.506-2.326-0.626-4.748-0.586-7.146c0.076-1.197,0.123-2.403,0.333-3.581l0.134-0.889
		l0.069-0.444c-0.041,0.164,0.099-0.48,0.096-0.47l0.041-0.174l0.323-1.392c0.758-2.769,1.708-4.904,2.885-7.053
		c1.168-2.131,2.591-4.029,4.096-5.808c3.035-3.542,6.565-6.372,10.259-8.752c7.428-4.701,15.515-7.638,23.718-9.451
		c8.221-1.781,16.6-2.372,24.882-1.964l1.552,0.092l0.775,0.047l0.835,0.07l1.439,0.129l1.613,0.186
		c2.191,0.258,4.208,0.625,6.303,1.062c4.146,0.889,8.238,2.141,12.204,3.841c3.959,1.712,7.806,3.858,11.338,6.683
		c3.506,2.816,6.746,6.369,8.949,10.859c1.092,2.236,1.892,4.71,2.244,7.281c0.359,2.569,0.257,5.217-0.262,7.699
		c-0.253,1.065-0.099,0.391-0.168,0.671l-0.049,0.166l-0.099,0.331l-0.197,0.662l-0.197,0.661l-0.049,0.165l-0.099,0.252
		l-0.215,0.521c-0.29,0.693-0.605,1.38-0.935,2.053c-0.332,0.738-0.671,1.144-1.014,1.697l-1.044,1.547l-1.166,1.363
		c-0.764,0.941-1.615,1.704-2.464,2.473c-3.42,3.021-7.177,5.072-10.951,6.622c-3.784,1.531-7.621,2.587-11.447,3.177
		c-3.824,0.581-7.622,0.873-11.359,0.773c-0.935,0.02-1.863-0.092-2.789-0.134l-1.385-0.089l-0.346-0.022l-0.335-0.029l-0.157-0.021
		l-0.628-0.079l-1.253-0.159c-0.414-0.053-0.816-0.102-1.333-0.205c-0.969-0.186-1.957-0.355-2.892-0.568
		c-3.648-0.837-7.191-2.119-10.512-3.929c-3.301-1.816-6.443-4.218-8.833-7.559c-1.218-1.626-2.136-3.608-2.722-5.68
		c-0.221-1.075-0.477-2.131-0.459-3.235c-0.002-0.545-0.061-1.093,0.009-1.627c0.063-0.535,0.136-1.067,0.215-1.596l0.062-0.396
		c0.047-0.214-0.061,0.201,0.114-0.529l0.043-0.135l0.172-0.538l0.172-0.536l0.043-0.135l0.086-0.21l0.186-0.432
		c0.252-0.563,0.527-1.161,0.812-1.662l0.861-1.275c1.213-1.599,2.602-2.925,4.064-3.925c2.911-2.069,5.977-3.298,8.987-4.1
		c3.016-0.794,5.997-1.189,8.89-1.213c1.446-0.002,2.869,0.021,4.262,0.166l1.041,0.089c0.238,0.021,0.134,0.017,0.218,0.025
		l0.119,0.018l0.237,0.036l0.473,0.07l0.948,0.146l1.076,0.219c2.8,0.598,5.33,1.511,7.694,2.847
		c2.316,1.371,4.468,3.131,5.877,5.564c0.716,1.199,1.144,2.605,1.295,4.004c0.021,0.71,0.044,1.41-0.1,2.084l-0.083,0.504
		l-0.022,0.125c0.028-0.1-0.067,0.278-0.066,0.271l-0.063,0.183c-0.097,0.262-0.142,0.448-0.279,0.769
		c-0.157,0.349-0.326,0.691-0.501,1.022c-0.178,0.306-0.366,0.541-0.551,0.808c-0.177,0.27-0.389,0.489-0.596,0.713
		c-0.21,0.218-0.404,0.461-0.632,0.64c-0.866,0.802-1.8,1.394-2.727,1.896c-1.861,0.991-3.74,1.507-5.517,1.837
		c-1.78,0.325-3.479,0.394-5.059,0.339c-0.791-0.005-1.551-0.121-2.283-0.189c-0.359-0.061-0.712-0.119-1.06-0.178
		c-0.342-0.062-0.707-0.156-1.047-0.231c-2.689-0.681-4.809-1.828-6.175-3.167c-1.409-1.306-1.902-2.807-1.958-3.75
		c-0.001-0.484,0.015-0.841,0.081-1.076c0.045-0.235,0.067-0.354,0.067-0.354c0.033-0.002-0.104,0.495,0.062,1.402
		c0.19,0.892,0.851,2.15,2.27,3.166c1.382,1.041,3.467,1.828,5.947,2.115c0.311,0.025,0.604,0.066,0.94,0.083
		c0.332,0.012,0.669,0.023,1.013,0.035c0.681-0.024,1.381-0.021,2.1-0.096c1.435-0.113,2.949-0.349,4.468-0.812
		c1.511-0.46,3.062-1.097,4.416-2.038c0.67-0.472,1.31-0.996,1.818-1.595c0.147-0.139,0.234-0.308,0.354-0.458
		c0.113-0.154,0.235-0.305,0.308-0.472c0.078-0.157,0.19-0.329,0.248-0.47c0.036-0.128,0.08-0.247,0.136-0.362
		c0.057-0.151,0.112-0.474,0.168-0.703l0.042-0.189c0.018-0.07-0.062,0.246-0.029,0.081v-0.068l0.005-0.271
		c0.047-0.358-0.038-0.711-0.075-1.062c-0.178-0.692-0.427-1.389-0.923-2.044c-0.94-1.323-2.531-2.459-4.352-3.308
		c-1.835-0.827-4.009-1.382-6.149-1.628l-0.786-0.092l-0.942-0.055l-0.478-0.027l-0.239-0.014l-0.12-0.006
		c0.004,0.002-0.179-0.015-0.021,0.003l-0.885,0.011c-1.182-0.015-2.376,0.084-3.574,0.195c-2.394,0.26-4.81,0.765-7.117,1.58
		c-2.303,0.803-4.507,1.961-6.22,3.422c-0.889,0.707-1.554,1.531-2.082,2.321c-0.11,0.204-0.225,0.402-0.346,0.598
		c-0.062,0.157-0.072,0.252-0.141,0.363l-0.049,0.079c-0.009,0.017-0.018,0.018-0.028,0.046l-0.034,0.137l-0.135,0.548l-0.135,0.548
		l-0.034,0.138c0.156-0.639,0.043-0.129,0.078-0.25l-0.002,0.168c-0.005,0.223-0.019,0.442-0.041,0.661
		c-0.028,0.221,0.055,0.436,0.063,0.65c-0.008,0.434,0.191,0.856,0.283,1.287c0.351,0.848,0.772,1.724,1.517,2.547
		c1.394,1.663,3.467,3.199,5.905,4.334c2.437,1.143,5.177,1.979,8.054,2.455c0.695,0.114,1.363,0.181,2.044,0.283
		c0.307,0.055,0.74,0.082,1.163,0.113l1.259,0.099l0.631,0.05l0.158,0.013c0.091,0.009-0.217-0.022-0.019-0.009l0.289,0.003
		l1.155,0.016c0.771-0.005,1.542,0.062,2.316,0.001c3.098-0.062,6.204-0.468,9.263-1.077c0.757-0.178,1.517-0.355,2.278-0.534
		c0.749-0.208,1.486-0.449,2.232-0.669c0.758-0.194,1.457-0.511,2.187-0.767c0.36-0.137,0.728-0.261,1.083-0.406l1.038-0.477
		c2.769-1.251,5.339-2.853,7.288-4.732c0.477-0.473,0.979-0.932,1.328-1.442l0.597-0.73l0.443-0.758
		c0.406-0.564,0.391-0.831,0.592-1.115l0.073-0.105c0.013-0.021,0.025-0.023,0.04-0.062l0.045-0.167l0.179-0.666l0.179-0.667
		l0.09-0.334l0.045-0.166c-0.04,0.169,0.153-0.615-0.078,0.337c0.394-2.265,0.015-4.444-1.143-6.663
		c-1.156-2.205-3.097-4.361-5.53-6.189c-2.405-1.862-5.261-3.427-8.319-4.687c-3.066-1.255-6.341-2.208-9.714-2.873
		c-1.667-0.325-3.444-0.602-5.079-0.783l-1.256-0.143l-1.44-0.122l-0.605-0.049l-0.668-0.035l-1.336-0.071
		c-7.128-0.319-14.333,0.249-21.252,1.775c-3.462,0.744-6.853,1.728-10.102,2.96c-3.235,1.252-6.328,2.756-9.148,4.521
		c-2.789,1.791-5.335,3.814-7.342,6.078c-0.987,1.135-1.903,2.301-2.589,3.523c-0.697,1.187-1.266,2.579-1.568,3.476l-0.346,1.387
		l-0.043,0.174c-0.03,0.121,0.087-0.401,0.029-0.12l-0.041,0.262l-0.085,0.521c-0.151,0.695-0.165,1.393-0.236,2.087
		c-0.035,1.391-0.004,2.78,0.264,4.158c0.423,2.767,1.585,5.484,3.153,8.06c3.221,5.151,8.286,9.519,13.856,12.972
		c5.613,3.46,11.816,6.003,18.094,7.919c3.15,0.938,6.331,1.705,9.509,2.334c3.254,0.596,6.167,1.037,9.595,1.407
		c1.576,0.137,3.141,0.273,4.695,0.409c1.581,0.078,3.152,0.196,4.712,0.242c3.122,0.098,6.203,0.118,9.231,0.033
		c6.06-0.152,11.906-0.728,17.474-1.587c11.128-1.747,21.137-4.738,29.464-8.586c8.315-3.867,14.975-8.497,19.648-13.167
		c4.709-4.65,7.454-9.218,8.936-12.486c0.341-0.832,0.642-1.565,0.901-2.199c0.276-0.634,0.408-1.21,0.566-1.651
		C168.296,191.235,168.444,190.773,168.444,190.773z"/>
</g>
<g>
	<path fill="#FFFFFF" d="M237.403,162.697c0,0-0.216,0.318-0.635,0.934c-0.415,0.62-1.021,1.539-1.939,2.671
		c-1.812,2.255-4.616,5.548-9.021,8.853c-4.367,3.311-10.286,6.729-17.738,8.96c-7.413,2.247-16.33,3.459-25.973,2.379
		c-4.81-0.532-9.8-1.567-14.771-3.286c-2.497-0.832-4.972-1.871-7.434-3.039c-1.229-0.59-2.445-1.231-3.664-1.891
		c-0.601-0.346-1.202-0.693-1.808-1.042l-0.453-0.263l-0.114-0.066c-0.112-0.073,0.092,0.072-0.281-0.182l-0.204-0.137l-0.82-0.55
		c-9.476-5.939-18.08-16.075-21.5-28.633c-1.731-6.251-2.147-13.104-0.813-19.799l0.61-2.487l0.313-1.246
		c0.093-0.419,0.217-0.829,0.377-1.228l0.894-2.419c0.299-0.808,0.59-1.622,1.006-2.378l1.175-2.309l0.6-1.151l0.709-1.082
		l1.436-2.162l0.362-0.54l0.181-0.27c-0.148,0.176,0.305-0.395,0.291-0.373l0.091-0.108l0.725-0.869
		c0.496-0.585,0.941-1.145,1.479-1.753l2.065-2.024c0.349-0.331,0.699-0.673,1.052-0.989l1.054-0.825l2.127-1.635l2.266-1.417
		l1.141-0.701l1.19-0.596l2.401-1.163l2.484-0.939c6.659-2.464,13.831-3.058,20.78-2.329c0.877,0.047,1.731,0.246,2.595,0.39
		c0.859,0.163,1.725,0.296,2.576,0.49l2.532,0.685l1.263,0.349l1.233,0.444l2.457,0.909c0.815,0.309,1.588,0.724,2.382,1.084
		c0.78,0.389,1.594,0.715,2.342,1.162l2.253,1.326l0.562,0.333l0.28,0.167l0.141,0.083c0.146,0.097-0.13-0.099,0.363,0.238
		l0.929,0.669l0.928,0.669c0.315,0.231,0.592,0.408,0.992,0.76c0.745,0.625,1.479,1.267,2.204,1.913
		c0.704,0.648,1.272,1.311,1.908,1.97c2.421,2.691,4.506,5.721,6.014,9.056c1.488,3.34,2.446,6.931,2.753,10.596
		c0.304,3.661-0.066,7.403-1.169,10.901c-0.21,0.893-0.599,1.726-0.924,2.576l-0.514,1.266l-0.633,1.203
		c-0.446,0.785-0.811,1.623-1.35,2.34l-0.762,1.105l-0.383,0.55l-0.192,0.274l-0.097,0.136c-0.116,0.151,0.125-0.144-0.286,0.372
		l-1.438,1.645c-0.691,0.692-1.461,1.402-2.206,2.072c-0.732,0.578-1.458,1.096-2.191,1.631c-0.756,0.488-1.536,0.928-2.306,1.379
		c-6.316,3.342-13.4,4.08-19.809,2.854c-3.209-0.615-6.3-1.664-9.09-3.192c-0.719-0.338-1.367-0.804-2.046-1.202l-0.501-0.312
		l-0.25-0.156l-0.125-0.077c-0.397-0.269-0.168-0.118-0.282-0.198l-0.801-0.605c-0.28-0.219-0.499-0.361-0.829-0.643l-0.997-0.885
		c-0.694-0.596-1.219-1.197-1.761-1.798c-2.142-2.43-3.794-5.281-4.725-8.349c-0.924-3.063-1.149-6.328-0.576-9.413
		c0.556-3.087,1.887-5.96,3.701-8.287l0.163-0.224c0.084-0.106-0.073,0.082,0.21-0.267l0.075-0.083l0.303-0.33l0.614-0.667
		l0.925-0.857c0.313-0.29,0.626-0.555,0.923-0.754c0.599-0.442,1.2-0.87,1.846-1.208c0.624-0.38,1.283-0.666,1.937-0.947
		c2.625-1.111,5.369-1.502,7.977-1.424c2.612,0.086,5.117,0.659,7.357,1.645c1.122,0.486,2.182,1.069,3.161,1.731l0.371,0.241
		l0.092,0.061c0.012,0.005,0.248,0.173,0.183,0.13l0.149,0.119l0.594,0.473c0.175,0.128,0.452,0.39,0.683,0.601
		c0.237,0.221,0.481,0.442,0.701,0.666c1.639,1.738,2.852,3.802,3.465,5.982c0.594,2.182,0.643,4.457,0.085,6.498
		c-0.533,2.035-1.66,3.846-2.938,5.123c-2.969,2.866-6.604,3.356-9.518,2.932c-1.473-0.219-2.804-0.693-3.947-1.306
		c-0.59-0.3-1.071-0.649-1.597-1.035c-0.41-0.327-0.898-0.77-1.271-1.202c-1.501-1.725-2.047-3.686-1.995-5.193
		c0.019-1.528,0.559-2.594,0.939-3.228c0.189-0.327,0.375-0.544,0.494-0.692c0.118-0.147,0.178-0.223,0.178-0.223
		s-0.047,0.084-0.14,0.249c-0.094,0.164-0.239,0.403-0.37,0.749c-0.274,0.67-0.586,1.748-0.412,3.109
		c0.145,1.35,0.882,2.962,2.332,4.207c0.359,0.307,0.709,0.553,1.223,0.857c0.414,0.218,0.921,0.48,1.428,0.659
		c1.019,0.394,2.159,0.643,3.358,0.671c1.196,0.029,2.452-0.163,3.635-0.623c0.578-0.258,1.16-0.532,1.669-0.922
		c0.271-0.174,0.502-0.396,0.742-0.607c0.24-0.229,0.366-0.387,0.601-0.653c0.868-1.136,1.402-2.368,1.64-3.742
		c0.226-1.366,0.025-2.825-0.501-4.2c-2.004-5.615-11.149-8.672-17.484-5.321c-0.385,0.213-0.775,0.414-1.12,0.681
		c-0.372,0.229-0.696,0.513-1.022,0.793c-0.186,0.139-0.305,0.271-0.413,0.396c-0.116,0.125-0.237,0.245-0.363,0.361l-0.544,0.686
		l-0.276,0.351l-0.069,0.088c0.234-0.292,0.04-0.038,0.081-0.084l-0.087,0.148c-1.009,1.533-1.635,3.271-1.815,5.087
		c-0.177,1.814,0.057,3.704,0.732,5.504c0.679,1.799,1.808,3.478,3.245,4.904c0.367,0.354,0.733,0.73,1.076,0.967l0.509,0.421
		c0.177,0.149,0.524,0.363,0.778,0.542l0.831,0.562c-0.046-0.031,0.249,0.172-0.076-0.055l0.092,0.05l0.184,0.099l0.367,0.197
		c0.497,0.248,0.956,0.57,1.48,0.77c2.008,0.977,4.211,1.576,6.446,1.883c4.466,0.594,9.224-0.134,13.008-2.383l1.365-0.897
		l1.246-1.013c0.304-0.33,0.6-0.605,0.95-0.928l1.391-1.686c-0.358,0.44-0.066,0.07-0.132,0.145l0.057-0.09l0.114-0.181l0.229-0.359
		l0.466-0.714c0.35-0.457,0.522-1.003,0.798-1.496l0.383-0.756l0.281-0.797c0.177-0.533,0.433-1.043,0.523-1.604
		c0.623-2.165,0.775-4.471,0.51-6.756c-0.239-2.29-0.883-4.569-1.884-6.729c-1.021-2.156-2.453-4.144-4.118-5.936
		c-0.431-0.421-0.856-0.917-1.282-1.287c-0.425-0.351-0.842-0.707-1.248-1.079c-0.155-0.171-0.521-0.41-0.821-0.628l-0.932-0.663
		l-0.933-0.664c0.416,0.284,0.054,0.043,0.119,0.091l-0.106-0.061l-0.214-0.123l-0.427-0.246c-4.494-2.686-9.568-4.525-14.808-5.07
		c-5.21-0.567-10.591-0.164-15.415,1.616l-1.805,0.66l-1.718,0.827l-0.864,0.401l-0.808,0.49l-1.625,0.963l-1.498,1.124
		l-0.754,0.555l-0.606,0.564c-0.403,0.373-0.813,0.737-1.233,1.095c-0.474,0.513-0.982,1.127-1.472,1.685l-0.739,0.855l-0.093,0.107
		c-0.077,0.091,0.322-0.402,0.122-0.146l-0.135,0.199l-0.27,0.397l-1.088,1.58l-0.55,0.786l-0.444,0.842l-0.903,1.674
		c-0.338,0.542-0.554,1.135-0.785,1.722l-0.714,1.751c-0.134,0.287-0.234,0.585-0.304,0.892l-0.25,0.909l-0.514,1.813
		c-1.127,4.899-0.974,10.03,0.136,14.897c1.12,4.879,3.299,9.461,6.115,13.514c0.761,0.973,1.428,2.018,2.245,2.936
		c0.827,0.91,1.649,1.816,2.467,2.716c0.854,0.791,1.703,1.577,2.546,2.358c0.108,0.099,0.202,0.197,0.321,0.297l0.397,0.305
		l0.792,0.605c0.526,0.402,1.052,0.805,1.575,1.205l0.784,0.6l0.195,0.148c-0.307-0.205-0.03-0.021-0.073-0.05l0.095,0.063
		l0.382,0.253c0.509,0.339,1.017,0.675,1.521,1.011c1.029,0.641,2.059,1.272,3.104,1.857c1.055,0.566,2.092,1.154,3.167,1.646
		c1.057,0.532,2.129,1.008,3.2,1.467c4.281,1.861,8.666,3.076,12.941,3.925c4.282,0.855,8.488,1.163,12.494,1.149
		c4.009-0.014,7.823-0.418,11.355-1.111c7.062-1.418,13-3.856,17.534-6.504c4.535-2.656,7.766-5.367,9.825-7.334
		c1.041-0.975,1.808-1.779,2.312-2.328C237.14,162.977,237.403,162.697,237.403,162.697z"/>
</g>
</svg>
