<?xml version="1.0" encoding="utf-8"?>
<!-- Generator: Adobe Illustrator 16.0.0, SVG Export Plug-In . SVG Version: 6.00 Build 0)  -->
<!DOCTYPE svg PUBLIC "-//W3C//DTD SVG 1.1//EN" "http://www.w3.org/Graphics/SVG/1.1/DTD/svg11.dtd">
<svg version="1.1" id="Layer_1" xmlns="http://www.w3.org/2000/svg" xmlns:xlink="http://www.w3.org/1999/xlink" x="0px" y="0px"
	 width="256px" height="256px" viewBox="0 0 256 256" enable-background="new 0 0 256 256" xml:space="preserve">
<polygon fill="#DFEEF2" points="196,168.482 253.451,168.482 224.727,140.764 196,113.044 167.275,140.764 138.55,168.482 "/>
<polygon fill="#DFEEF2" points="136.849,170.353 208.702,170.353 172.774,128.675 136.849,87 100.919,128.675 64.991,170.353 "/>
<polygon fill="#B7DBEA" points="256,184.833 332.117,184.833 294.061,152.864 256,120.895 217.941,152.864 179.883,184.833 "/>
<polygon fill="#B7DBEA" points="102.519,177.623 214.337,177.623 158.431,145.654 102.519,113.685 46.609,145.654 -9.3,177.623 "/>
<polygon fill="#B7DBEA" points="0,181.833 76.118,181.833 38.06,149.864 0,117.895 -38.059,149.864 -76.118,181.833 "/>
<ellipse fill="#96E0BB" cx="79.092" cy="194.376" rx="31.348" ry="28.317"/>
<ellipse fill="#96E0BB" cx="120.713" cy="178.998" rx="25.826" ry="27.094"/>
<path fill="#96E0BB" d="M177.492,169.476c24.645,0,44.625,11.913,44.625,26.608c0,14.691-19.98,26.609-44.625,26.609
	s-44.625-11.918-44.625-26.609C132.867,181.389,152.848,169.476,177.492,169.476z"/>
<ellipse fill="#96E0BB" cx="226.688" cy="185.345" rx="21.971" ry="26.122"/>
<ellipse fill="#96E0BB" cx="40.008" cy="180.712" rx="21.008" ry="16.599"/>
<rect y="182.26" fill="#96E0BB" width="256" height="32.74"/>
<path fill="#96E0BB" d="M0,161.946c10.684,0,19.348,8.401,19.348,18.763c0,10.367-8.664,18.768-19.348,18.768
	c-10.685,0-19.348-8.4-19.348-18.768C-19.348,170.349-10.684,161.946,0,161.946z"/>
<path fill="#96E0BB" d="M256,161.946c10.684,0,19.348,8.401,19.348,18.763c0,10.367-8.664,18.768-19.348,18.768
	c-10.686,0-19.348-8.4-19.348-18.768C236.652,170.349,245.316,161.946,256,161.946z"/>
<path fill="#B1EFAF" d="M0,204.376c33.131,0,60,17.908,60,39.997c0,22.098-26.869,40.003-60,40.003c-33.133,0-60-17.905-60-40.003
	C-59.997,222.284-33.129,204.376,0,204.376z"/>
<path fill="#B1EFAF" d="M152.521,197.31c27.608,0,49.997,22.387,49.997,49.994c0,27.619-22.391,50.006-49.997,50.006
	c-27.614,0-50.002-22.387-50.002-50.006C102.518,219.69,124.909,197.31,152.521,197.31z"/>
<path fill="#B1EFAF" d="M106.488,186.346c14.693,0,26.609,11.656,26.609,26.033c0,14.383-11.917,26.037-26.609,26.037
	c-14.694,0-26.609-11.654-26.609-26.037C79.879,198.002,91.794,186.346,106.488,186.346z"/>
<path fill="#B1EFAF" d="M204.716,194.376c15.313,0,27.731,11.637,27.731,25.988c0,14.359-12.418,25.994-27.731,25.994
	c-15.312,0-27.729-11.635-27.729-25.994C176.987,206.013,189.405,194.376,204.716,194.376z"/>
<path fill="#B1EFAF" d="M106.489,201.821c32.437,0,58.745,17.828,58.745,39.827c0,22.008-26.308,39.84-58.745,39.84
	c-32.445,0-58.745-17.832-58.745-39.84C47.744,219.653,74.051,201.821,106.489,201.821z"/>
<path fill="#B1EFAF" d="M55.574,188.113c21.709,0,39.313,15.48,39.313,34.576c0,19.104-17.604,34.584-39.313,34.584
	c-21.711,0-39.314-15.48-39.314-34.584C16.259,203.594,33.866,188.113,55.574,188.113z"/>
<path fill="#B1EFAF" d="M256,204.376c33.131,0,60,17.908,60,39.997c0,22.098-26.869,40.003-60,40.003c-33.133,0-60-17.905-60-40.003
	C196.004,222.284,222.871,204.376,256,204.376z"/>
</svg>
